<mxfile host="app.diagrams.net" modified="2023-07-19T07:24:05.708Z" agent="Mozilla/5.0 (Windows NT 10.0; Win64; x64) AppleWebKit/537.36 (KHTML, like Gecko) Chrome/114.0.0.0 Safari/537.36 Edg/114.0.1823.82" version="21.6.3" etag="Yfqh4SJY2p7Elqi89HL9" type="github">
  <diagram name="Page-1" id="yDdV9s6aI6VG-M1q0cFr">
    <mxGraphModel>
      <root>
        <mxCell id="0" />
        <mxCell id="1" parent="0" />
      </root>
    </mxGraphModel>
  </diagram>
</mxfile>
